<svg xmlns="http://www.w3.org/2000/svg" xmlns:xlink="http://www.w3.org/1999/xlink" version="1.1" x="0px" y="0px" viewBox="0 0 44 55" enable-background="new 0 0 44 44" xml:space="preserve"><g><g><path fill="#000000" d="M8,23h16.5c0.6,0,1-0.4,1-1s-0.4-1-1-1H8l2.9-2.9c0.4-0.4,0.4-1,0-1.4s-1-0.4-1.4,0l-4.6,4.6    c-0.1,0.1-0.2,0.2-0.2,0.3c-0.1,0.1-0.1,0.3-0.1,0.4s0,0.3,0.1,0.4c0.1,0.1,0.1,0.2,0.2,0.3l4.6,4.6c0.2,0.2,0.5,0.3,0.7,0.3    s0.5-0.1,0.7-0.3c0.4-0.4,0.4-1,0-1.4L8,23z"/><path fill="#000000" d="M34.5,2.1H19.1c-2.7,0-4.9,2.2-4.9,4.9v9.1c0,0.6,0.4,1,1,1s1-0.4,1-1V7c0-1.6,1.3-2.9,2.9-2.9h15.5    c1.6,0,2.9,1.3,2.9,2.9V37c0,1.6-1.3,2.9-2.9,2.9H19.1c-1.6,0-2.9-1.3-2.9-2.9v-8.6c0-0.6-0.4-1-1-1s-1,0.4-1,1V37    c0,2.7,2.2,4.9,4.9,4.9h15.5c2.7,0,4.9-2.2,4.9-4.9V7C39.5,4.3,37.3,2.1,34.5,2.1z"/></g></g><text x="0" y="59" fill="#000000" font-size="5px" font-weight="bold" font-family="'Helvetica Neue', Helvetica, Arial-Unicode, Arial, Sans-serif">Created by Tim Neumann</text><text x="0" y="64" fill="#000000" font-size="5px" font-weight="bold" font-family="'Helvetica Neue', Helvetica, Arial-Unicode, Arial, Sans-serif">from the Noun Project</text></svg>