<svg xmlns="http://www.w3.org/2000/svg" data-name="Layer 1" viewBox="0 0 100 125" x="0px" y="0px"><title>03</title><g data-name="Group"><path data-name="Compound Path" d="M86.7,74l-1-2a40.2,40.2,0,0,1-4.1-17.6V44A31.2,31.2,0,0,0,57.3,13.3H53V4.8a3,3,0,1,0-6,0v8.4H42.7A31.2,31.2,0,0,0,18.3,44V54.5a40.2,40.2,0,0,1-4.1,17.6l-1,2a8,8,0,0,0,7.2,11.5h15a14.7,14.7,0,0,0,29,0h15A8,8,0,0,0,86.7,74ZM50,92.2a8.7,8.7,0,0,1-8.4-6.6H58.4A8.7,8.7,0,0,1,50,92.2ZM81.2,78.6a2,2,0,0,1-1.7.9h-59a2,2,0,0,1-1.8-2.9l1-2a46.3,46.3,0,0,0,4.7-20.2V44A25.3,25.3,0,0,1,43.8,19.2H56.2A25.3,25.3,0,0,1,75.7,44V54.5a46.3,46.3,0,0,0,4.7,20.2l1,2A2,2,0,0,1,81.2,78.6Z"/></g><text x="0" y="115" fill="#000000" font-size="5px" font-weight="bold" font-family="'Helvetica Neue', Helvetica, Arial-Unicode, Arial, Sans-serif">Created by Focus</text><text x="0" y="120" fill="#000000" font-size="5px" font-weight="bold" font-family="'Helvetica Neue', Helvetica, Arial-Unicode, Arial, Sans-serif">from the Noun Project</text></svg>