<svg xmlns="http://www.w3.org/2000/svg" viewBox="0 0 100 125" x="0px" y="0px"><title>Copy 2</title><g data-name="Bell, Alarm, Time, Alert"><path d="M56.36,24.2A7.89,7.89,0,0,0,58,19.42a8,8,0,1,0-15.94,0,7.89,7.89,0,0,0,1.61,4.78A25.19,25.19,0,0,0,24.86,48.52V76.11a2,2,0,0,0,2,2H73.14a2,2,0,0,0,2-2V48.52A25.19,25.19,0,0,0,56.36,24.2ZM46,19.42a4,4,0,1,1,4,4A4,4,0,0,1,46,19.42ZM71.14,74.11H28.86V48.52a21.14,21.14,0,0,1,42.28,0Z"/><path d="M66.42,84.55H33.58a2,2,0,0,0,0,4H66.42a2,2,0,0,0,0-4Z"/></g><text x="0" y="115" fill="#000000" font-size="5px" font-weight="bold" font-family="'Helvetica Neue', Helvetica, Arial-Unicode, Arial, Sans-serif">Created by Manglayang studio</text><text x="0" y="120" fill="#000000" font-size="5px" font-weight="bold" font-family="'Helvetica Neue', Helvetica, Arial-Unicode, Arial, Sans-serif">from the Noun Project</text></svg>