<svg xmlns="http://www.w3.org/2000/svg" xmlns:xlink="http://www.w3.org/1999/xlink" version="1.1" x="0px" y="0px" viewBox="0 0 100 125" style="enable-background:new 0 0 100 100;" xml:space="preserve"><g><path d="M27.5,77.5h45c3.3,0,6.2-2,7.3-5.1c1.1-3.1,0.3-6.5-2.2-8.7c-4.8-4.1-6.9-9.2-6.4-15.1c0.7-8.6-1.2-15.3-5.6-19.9   c-2.5-2.6-5.4-4.2-8.1-5c0-0.1,0-0.1,0-0.2c0-4.1-3.4-7.5-7.5-7.5s-7.5,3.4-7.5,7.5c0,0.1,0,0.1,0,0.2c-2.7,0.9-5.6,2.4-8.1,5   C30,33.3,28.2,40,28.9,48.7c0.5,5.9-1.7,11-6.4,15.1c-2.5,2.2-3.4,5.6-2.2,8.7C21.3,75.5,24.2,77.5,27.5,77.5z M50,20   c1.7,0,3.1,1.2,3.4,2.7c-1.7-0.3-3-0.3-3.4-0.2c-0.4,0-1.7,0-3.4,0.2C46.9,21.2,48.3,20,50,20z M25,66.8c5.8-5,8.4-11.2,7.8-18.5   c-0.6-7.4,0.9-13.1,4.5-16.9c4.5-4.8,11.2-5,12.4-5c0.1,0,0.2,0,0.2,0l0.1,0l0.1,0c0.3,0,7.7-0.2,12.6,5c3.6,3.7,5.1,9.4,4.5,16.9   c-0.6,7.3,2.1,13.5,7.8,18.5v0c1.5,1.3,1.5,3,1.1,4.2c-0.4,1.2-1.6,2.5-3.6,2.5h-45c-2,0-3.1-1.3-3.6-2.5   C23.5,69.8,23.5,68.1,25,66.8z"/><path d="M56.2,80.6c-1.1,2.4-3.6,3.9-6.2,3.9s-5.1-1.5-6.2-3.9c-0.5-1-1.7-1.4-2.7-0.9c-1,0.5-1.4,1.7-0.9,2.7   c1.8,3.8,5.6,6.2,9.8,6.2s8-2.4,9.8-6.2c0.5-1,0-2.2-0.9-2.7C57.9,79.2,56.7,79.6,56.2,80.6z"/></g><text x="0" y="115" fill="#000000" font-size="5px" font-weight="bold" font-family="'Helvetica Neue', Helvetica, Arial-Unicode, Arial, Sans-serif">Created by Icon Depot</text><text x="0" y="120" fill="#000000" font-size="5px" font-weight="bold" font-family="'Helvetica Neue', Helvetica, Arial-Unicode, Arial, Sans-serif">from the Noun Project</text></svg>