<svg xmlns="http://www.w3.org/2000/svg" xmlns:xlink="http://www.w3.org/1999/xlink" version="1.1" x="0px" y="0px" viewBox="0 0 64 80" enable-background="new 0 0 64 64" xml:space="preserve"><g><path d="M10.727,21.739c0.11,0.039,0.224,0.058,0.335,0.058c0.411,0,0.797-0.255,0.942-0.665c1.207-3.393,3.317-6.47,6.103-8.898   c0.416-0.363,0.459-0.995,0.097-1.411c-0.365-0.417-0.996-0.459-1.411-0.097c-3.044,2.654-5.351,6.021-6.673,9.736   C9.935,20.982,10.206,21.554,10.727,21.739z"/><path d="M49.324,43.784V28.346c0-8.04-5.544-14.795-13.015-16.713V7.471c0-2.396-1.974-4.422-4.31-4.422   c-2.443,0-4.431,1.983-4.431,4.422v4.192c-7.411,1.96-12.897,8.686-12.897,16.683v15.429c-2.684,0.646-4.61,3-4.61,5.801   c0,3.281,2.73,5.95,6.087,5.95h9.49c0.47,3.11,3.091,5.426,6.361,5.426c3.208,0,5.868-2.357,6.353-5.426h9.499   c3.29,0,5.966-2.669,5.966-5.95C53.817,46.836,51.906,44.45,49.324,43.784z M29.569,7.471c0-1.335,1.091-2.422,2.431-2.422   c1.252,0,2.31,1.109,2.31,2.422v3.771c-0.758-0.102-1.524-0.172-2.31-0.172c-0.827,0-1.634,0.078-2.431,0.19V7.471z M32,58.951   c-2.185,0-3.898-1.418-4.331-3.426h8.646C35.856,57.483,34.102,58.951,32,58.951z M47.852,53.525H16.148   c-2.254,0-4.087-1.772-4.087-3.95c0-2.066,1.591-3.769,3.7-3.958c0.516-0.047,0.91-0.479,0.91-0.996V28.346   c0-8.424,6.876-15.276,15.328-15.276c8.307,0,15.324,6.996,15.324,15.276v16.275c0,0.516,0.393,0.947,0.906,0.995   c2.012,0.19,3.587,1.929,3.587,3.959C51.817,51.717,50.001,53.525,47.852,53.525z"/><path d="M51.996,21.132c0.146,0.41,0.531,0.665,0.942,0.665c0.111,0,0.225-0.019,0.335-0.058c0.521-0.186,0.792-0.757,0.607-1.277   c-1.286-3.615-3.636-6.981-6.794-9.736c-0.414-0.361-1.046-0.319-1.411,0.097c-0.362,0.416-0.319,1.048,0.097,1.411   C48.673,14.763,50.825,17.84,51.996,21.132z"/></g><text x="0" y="79" fill="#000000" font-size="5px" font-weight="bold" font-family="'Helvetica Neue', Helvetica, Arial-Unicode, Arial, Sans-serif">Created by apikke</text><text x="0" y="84" fill="#000000" font-size="5px" font-weight="bold" font-family="'Helvetica Neue', Helvetica, Arial-Unicode, Arial, Sans-serif">from the Noun Project</text></svg>