<svg xmlns="http://www.w3.org/2000/svg" viewBox="0 0 64 80" fill="none" x="0px" y="0px"><path d="M19 46C19 44.8954 19.8954 44 21 44H43C44.1046 44 45 44.8954 45 46C45 47.1046 44.1046 48 43 48H21C19.8954 48 19 47.1046 19 46Z" fill="black"/><path fill-rule="evenodd" clip-rule="evenodd" d="M40.6395 4.95032C35.5668 1.01656 28.4332 1.01656 23.3605 4.95032L7.36052 17.358C3.98122 19.9786 2 23.9929 2 28.2514V48.1563C2 55.8266 8.29282 62 16 62H48C55.7072 62 62 55.8266 62 48.1563V28.2514C62 23.9929 60.0188 19.9786 56.6395 17.358L40.6395 4.95032ZM25.8118 8.11124C29.4418 5.29625 34.5582 5.29625 38.1882 8.11125L54.1882 20.5189C56.5999 22.3891 58 25.2411 58 28.2514V48.1563C58 53.5682 53.5476 58 48 58H16C10.4524 58 6 53.5682 6 48.1563V28.2514C6 25.2411 7.40009 22.3891 9.81176 20.5189L25.8118 8.11124Z" fill="black"/><text x="0" y="79" fill="#000000" font-size="5px" font-weight="bold" font-family="'Helvetica Neue', Helvetica, Arial-Unicode, Arial, Sans-serif">Created by HDM</text><text x="0" y="84" fill="#000000" font-size="5px" font-weight="bold" font-family="'Helvetica Neue', Helvetica, Arial-Unicode, Arial, Sans-serif">from the Noun Project</text></svg>