<svg xmlns="http://www.w3.org/2000/svg" xmlns:xlink="http://www.w3.org/1999/xlink" version="1.2" baseProfile="tiny" x="0px" y="0px" viewBox="0 0 100 125" xml:space="preserve"><path d="M85.7011719,67.2626495c-1.2539063-1.0922852-1.9726563-2.671875-1.9726563-4.3339844V36.2299347  c0-9.0214863-3.5097656-17.4917011-9.8798828-23.8486328C67.3251953,5.8563981,58.6220703,2.3231952,49.4150391,2.5058124  C31.1396484,2.8163593,16.2714844,18.2616711,16.2714844,36.9359894v25.9926758c0,1.6621094-0.71875,3.2416992-1.9736328,4.3344727  c-2.3417969,2.0429688-3.6855469,4.9960938-3.6855469,8.1030273c0,4.7275391,3.8457031,8.5732422,8.5732422,8.5732422h19.8388672  v2.5854492c0,6.0522461,4.9238281,10.9760742,10.9755859,10.9760742s10.9755859-4.9238281,10.9755859-10.9760742v-2.5854492  h19.8388672c4.7275391,0,8.5732422-3.8457031,8.5732422-8.5732422  C89.3876953,72.2592316,88.0439453,69.3061066,85.7011719,67.2626495z M55.9755859,86.5248566  c0,3.2954102-2.6806641,5.9760742-5.9755859,5.9760742s-5.9755859-2.6806641-5.9755859-5.9760742v-2.5854492h11.9511719V86.5248566z   M80.8144531,78.9394073H19.1855469c-1.9707031,0-3.5732422-1.6030273-3.5732422-3.5732422  c0-1.6616211,0.71875-3.2416992,1.9716797-4.3339844c2.34375-2.0419922,3.6875-4.9956055,3.6875-8.1035156V36.9359894  c0-15.9638691,12.6630859-29.1665058,28.2275391-29.4311543c0.1689453-0.0029297,0.3369141-0.0039063,0.5048828-0.0039063  c7.6748047,0,14.8710938,2.9770513,20.3115234,8.4174805c5.4248047,5.4140615,8.4130859,12.6279287,8.4130859,20.3115234v26.6987305  c0,3.1079102,1.34375,6.0615234,3.6865234,8.1030273c1.2539063,1.0927734,1.9726563,2.6728516,1.9726563,4.3344727  C84.3876953,77.33638,82.7851563,78.9394073,80.8144531,78.9394073z"/><text x="0" y="115" fill="#000000" font-size="5px" font-weight="bold" font-family="'Helvetica Neue', Helvetica, Arial-Unicode, Arial, Sans-serif">Created by revi abraham</text><text x="0" y="120" fill="#000000" font-size="5px" font-weight="bold" font-family="'Helvetica Neue', Helvetica, Arial-Unicode, Arial, Sans-serif">from the Noun Project</text></svg>