<svg xmlns="http://www.w3.org/2000/svg" xmlns:xlink="http://www.w3.org/1999/xlink" xmlns:serif="http://www.serif.com/" viewBox="0 0 24 30" version="1.1" xml:space="preserve" style="" x="0px" y="0px" fill-rule="evenodd" clip-rule="evenodd" stroke-linejoin="round" stroke-miterlimit="2"><g><g><path d="M8.75,16.221l0,3c0,0.828 0.672,1.5 1.5,1.5c1.732,-0 5.268,-0 7,-0c0.828,-0 1.5,-0.672 1.5,-1.5l0,-14c-0,-0.829 -0.672,-1.5 -1.5,-1.5c-1.732,-0 -5.268,-0 -7,-0c-0.828,-0 -1.5,0.671 -1.5,1.5l-0,3c-0,0.276 0.224,0.5 0.5,0.5c0.276,-0 0.5,-0.224 0.5,-0.5l0,-3c0,-0.276 0.224,-0.5 0.5,-0.5l7,-0c0.276,-0 0.5,0.224 0.5,0.5c0,-0 -0,14 -0,14c-0,0.276 -0.224,0.5 -0.5,0.5l-7,-0c-0.276,-0 -0.5,-0.224 -0.5,-0.5c-0,-0 -0,-3 -0,-3c-0,-0.276 -0.224,-0.5 -0.5,-0.5c-0.276,-0 -0.5,0.224 -0.5,0.5Z"/><path d="M7.396,9.867l-2,2c-0.195,0.196 -0.195,0.512 0,0.707l2,2c0.196,0.196 0.512,0.196 0.708,0c0.195,-0.195 0.195,-0.512 -0,-0.707l-1.647,-1.646c0,-0 1.647,-1.647 1.647,-1.647c0.195,-0.195 0.195,-0.512 -0,-0.707c-0.196,-0.195 -0.512,-0.195 -0.708,0Z"/><path d="M6.25,12.721l7,-0c0.276,-0 0.5,-0.224 0.5,-0.5c-0,-0.276 -0.224,-0.5 -0.5,-0.5l-7,-0c-0.276,-0 -0.5,0.224 -0.5,0.5c-0,0.276 0.224,0.5 0.5,0.5Z"/></g></g><text x="0" y="39" fill="#000000" font-size="5px" font-weight="bold" font-family="'Helvetica Neue', Helvetica, Arial-Unicode, Arial, Sans-serif">Created by Rolas Design</text><text x="0" y="44" fill="#000000" font-size="5px" font-weight="bold" font-family="'Helvetica Neue', Helvetica, Arial-Unicode, Arial, Sans-serif">from the Noun Project</text></svg>